HIERARCHY
ROOT root
{
	OFFSET 0.000000 0.000000 0.000000
	CHANNELS 6 Xposition Yposition Zposition Xrotation Yrotation Zrotation
	JOINT Becken
	{
		OFFSET 0.000000 0.211570 0.405722
		CHANNELS 6 Xposition Yposition Zposition Xrotation Yrotation Zrotation
		JOINT Bauch
		{
			OFFSET 0.000000 -0.099054 0.017287
			CHANNELS 6 Xposition Yposition Zposition Xrotation Yrotation Zrotation
			JOINT Bauch.001
			{
				OFFSET 0.000000 -0.108138 0.003352
				CHANNELS 6 Xposition Yposition Zposition Xrotation Yrotation Zrotation
				JOINT Brust
				{
					OFFSET 0.000000 -0.106705 0.007714
					CHANNELS 6 Xposition Yposition Zposition Xrotation Yrotation Zrotation
					JOINT Hals
					{
						OFFSET 0.000000 -0.138891 -0.015220
						CHANNELS 6 Xposition Yposition Zposition Xrotation Yrotation Zrotation
						JOINT Kopf.002
						{
							OFFSET 0.000000 -0.063334 0.145080
							CHANNELS 6 Xposition Yposition Zposition Xrotation Yrotation Zrotation
							JOINT Kopf
							{
								OFFSET 0.000000 0.009737 -0.101110
								CHANNELS 6 Xposition Yposition Zposition Xrotation Yrotation Zrotation
								JOINT Unterkiefer
								{
									OFFSET -0.000407 -0.073044 -0.019282
									CHANNELS 6 Xposition Yposition Zposition Xrotation Yrotation Zrotation
									JOINT Hals_fett
									{
										OFFSET 0.000407 -0.009642 -0.030854
										CHANNELS 6 Xposition Yposition Zposition Xrotation Yrotation Zrotation
										End Site
										{
											OFFSET 0.000000 0.022820 -0.062015
										}
									}
									JOINT Maulunten
									{
										OFFSET 0.000407 -0.014618 0.001227
										CHANNELS 6 Xposition Yposition Zposition Xrotation Yrotation Zrotation
										End Site
										{
											OFFSET 0.000000 -0.066426 -0.013786
										}
									}
								}
								JOINT Mauloben
								{
									OFFSET -0.000000 -0.098884 -0.010422
									CHANNELS 6 Xposition Yposition Zposition Xrotation Yrotation Zrotation
									End Site
									{
										OFFSET 0.000000 -0.064855 -0.012665
									}
								}
								JOINT MundW_L
								{
									OFFSET 0.036228 -0.075523 -0.015181
									CHANNELS 6 Xposition Yposition Zposition Xrotation Yrotation Zrotation
									End Site
									{
										OFFSET -0.012653 -0.029194 -0.000988
									}
								}
								JOINT MundW_R
								{
									OFFSET -0.036228 -0.075523 -0.015181
									CHANNELS 6 Xposition Yposition Zposition Xrotation Yrotation Zrotation
									End Site
									{
										OFFSET 0.012654 -0.029194 -0.000988
									}
								}
								JOINT Ohr_L
								{
									OFFSET 0.036475 -0.040037 0.085229
									CHANNELS 6 Xposition Yposition Zposition Xrotation Yrotation Zrotation
									End Site
									{
										OFFSET 0.004821 -0.009662 0.029324
									}
								}
								JOINT Ohr_R
								{
									OFFSET -0.036475 -0.040037 0.085229
									CHANNELS 6 Xposition Yposition Zposition Xrotation Yrotation Zrotation
									End Site
									{
										OFFSET -0.004821 -0.009662 0.029324
									}
								}
								JOINT Braun_O_L
								{
									OFFSET 0.036984 -0.083330 0.061266
									CHANNELS 6 Xposition Yposition Zposition Xrotation Yrotation Zrotation
									End Site
									{
										OFFSET -0.024077 -0.024106 -0.014450
									}
								}
								JOINT Braun_O_R
								{
									OFFSET -0.036984 -0.083330 0.061266
									CHANNELS 6 Xposition Yposition Zposition Xrotation Yrotation Zrotation
									End Site
									{
										OFFSET 0.024077 -0.024106 -0.014450
									}
								}
								JOINT aug_lied_O_L
								{
									OFFSET 0.032663 -0.094051 0.047002
									CHANNELS 6 Xposition Yposition Zposition Xrotation Yrotation Zrotation
									End Site
									{
										OFFSET -0.014973 -0.010065 -0.003453
									}
								}
								JOINT aug_lied_O_R
								{
									OFFSET -0.032663 -0.094051 0.047002
									CHANNELS 6 Xposition Yposition Zposition Xrotation Yrotation Zrotation
									End Site
									{
										OFFSET 0.014973 -0.010065 -0.003453
									}
								}
								JOINT aug_lied_U_L
								{
									OFFSET 0.033082 -0.093256 0.043917
									CHANNELS 6 Xposition Yposition Zposition Xrotation Yrotation Zrotation
									End Site
									{
										OFFSET -0.014620 -0.010812 -0.006282
									}
								}
								JOINT aug_lied_U_R
								{
									OFFSET -0.033082 -0.093256 0.043917
									CHANNELS 6 Xposition Yposition Zposition Xrotation Yrotation Zrotation
									End Site
									{
										OFFSET 0.014620 -0.010812 -0.006282
									}
								}
							}
						}
					}
					JOINT Bauch.003
					{
						OFFSET 0.000000 -0.100000 0.100000
						CHANNELS 6 Xposition Yposition Zposition Xrotation Yrotation Zrotation
						JOINT Schalterplatte_L
						{
							OFFSET 0.038208 0.042097 -0.078706
							CHANNELS 6 Xposition Yposition Zposition Xrotation Yrotation Zrotation
							JOINT Oberarm_L
							{
								OFFSET 0.028512 -0.094482 -0.101909
								CHANNELS 6 Xposition Yposition Zposition Xrotation Yrotation Zrotation
								JOINT Unterarm_L
								{
									OFFSET 0.003153 0.098653 -0.177186
									CHANNELS 6 Xposition Yposition Zposition Xrotation Yrotation Zrotation
									JOINT Vorderpfote_L
									{
										OFFSET 0.002604 -0.029246 -0.168049
										CHANNELS 6 Xposition Yposition Zposition Xrotation Yrotation Zrotation
										End Site
										{
											OFFSET 0.000000 -0.045036 0.000028
										}
									}
								}
							}
						}
						JOINT Schalterplatte_R
						{
							OFFSET -0.038208 0.042097 -0.078706
							CHANNELS 6 Xposition Yposition Zposition Xrotation Yrotation Zrotation
							JOINT Oberarm_R
							{
								OFFSET -0.028512 -0.094482 -0.101909
								CHANNELS 6 Xposition Yposition Zposition Xrotation Yrotation Zrotation
								JOINT Unterarm_R
								{
									OFFSET -0.003153 0.098653 -0.177186
									CHANNELS 6 Xposition Yposition Zposition Xrotation Yrotation Zrotation
									JOINT Vorderpfote_R
									{
										OFFSET -0.002604 -0.029246 -0.168048
										CHANNELS 6 Xposition Yposition Zposition Xrotation Yrotation Zrotation
										End Site
										{
											OFFSET 0.000001 -0.045037 0.000028
										}
									}
								}
							}
						}
					}
				}
			}
		}
		JOINT Schwanz
		{
			OFFSET 0.000000 0.005099 -0.011779
			CHANNELS 6 Xposition Yposition Zposition Xrotation Yrotation Zrotation
			JOINT Schwanz.001
			{
				OFFSET 0.000000 0.085347 -0.031697
				CHANNELS 6 Xposition Yposition Zposition Xrotation Yrotation Zrotation
				JOINT Schwanz.002
				{
					OFFSET 0.000000 0.076608 -0.017390
					CHANNELS 6 Xposition Yposition Zposition Xrotation Yrotation Zrotation
					JOINT Schwanz.003
					{
						OFFSET 0.000000 0.083490 0.001496
						CHANNELS 6 Xposition Yposition Zposition Xrotation Yrotation Zrotation
						End Site
						{
							OFFSET 0.000000 0.080253 0.017983
						}
					}
				}
			}
		}
		JOINT Oberschenkel_L
		{
			OFFSET 0.058370 -0.051166 -0.021529
			CHANNELS 6 Xposition Yposition Zposition Xrotation Yrotation Zrotation
			JOINT Unterschenkel_L
			{
				OFFSET 0.014913 -0.012892 -0.167488
				CHANNELS 6 Xposition Yposition Zposition Xrotation Yrotation Zrotation
				JOINT Pfote1_L
				{
					OFFSET -0.002217 0.065703 -0.099301
					CHANNELS 6 Xposition Yposition Zposition Xrotation Yrotation Zrotation
					JOINT Pfote2_L
					{
						OFFSET 0.007647 0.000448 -0.098465
						CHANNELS 6 Xposition Yposition Zposition Xrotation Yrotation Zrotation
						End Site
						{
							OFFSET 0.000000 -0.045418 0.000020
						}
					}
				}
			}
		}
		JOINT Oberschenkel_R
		{
			OFFSET -0.058370 -0.051166 -0.021529
			CHANNELS 6 Xposition Yposition Zposition Xrotation Yrotation Zrotation
			JOINT Unterschenkel_R
			{
				OFFSET -0.014913 -0.012892 -0.167489
				CHANNELS 6 Xposition Yposition Zposition Xrotation Yrotation Zrotation
				JOINT Pfote1_R
				{
					OFFSET 0.002217 0.065703 -0.099301
					CHANNELS 6 Xposition Yposition Zposition Xrotation Yrotation Zrotation
					JOINT Pfote2_R
					{
						OFFSET -0.007647 0.000449 -0.098465
						CHANNELS 6 Xposition Yposition Zposition Xrotation Yrotation Zrotation
						End Site
						{
							OFFSET 0.000000 -0.045418 0.000020
						}
					}
				}
			}
		}
	}
}
MOTION
Frames: 4
Frame Time: 0.041667
0.000000 0.000000 0.000000 -0.000000 0.000000 -0.000000 -0.000000 0.211570 0.405722 0.000002 -0.000000 -0.000000 0.000000 -0.099054 0.017287 6.857391 0.000000 0.000001 -0.000000 -0.108138 0.003352 32.911236 0.000001 0.000002 0.000000 -0.106705 0.007714 15.511973 -0.000009 0.000005 0.000000 -0.138891 -0.015220 0.000003 0.000000 -0.000000 -0.000003 -0.094421 0.150012 3.232388 -0.001752 -0.007510 0.000000 0.009737 -0.101110 -3.186015 0.000045 -0.000518 -0.000407 -0.073044 -0.019282 -0.000013 0.000003 -0.000001 0.000407 -0.009642 -0.030854 -0.000000 0.000002 -0.000001 0.000407 -0.014618 0.001227 -0.000003 0.000001 0.000002 -0.000000 -0.098884 -0.010422 0.000003 0.000004 -0.000000 0.036228 -0.075523 -0.015181 0.000004 -0.000002 -0.000006 -0.036228 -0.075523 -0.015181 0.000001 0.000010 -0.000001 0.036475 -0.040037 0.085228 0.000002 0.000002 -0.000004 -0.036475 -0.040037 0.085228 0.000006 0.000000 -0.000005 0.036984 -0.083330 0.061266 0.000003 -0.000003 0.000007 -0.036984 -0.083330 0.061266 0.000001 -0.000003 -0.000015 0.032663 -0.094051 0.047002 0.000004 0.000004 -0.000006 -0.032663 -0.094051 0.047002 -0.000001 0.000008 0.000010 0.033082 -0.093256 0.043917 0.000004 0.000008 -0.000004 -0.033082 -0.093256 0.043917 0.000006 0.000004 0.000011 0.000000 0.063255 0.150689 0.000003 -0.000000 0.000000 0.038208 0.042098 -0.078706 -45.190830 -0.915695 -4.142538 0.028512 -0.094482 -0.101909 -28.593974 -0.494572 2.588208 0.003153 0.098653 -0.177186 6.179052 -1.610358 2.208465 0.002604 -0.029246 -0.168049 7.809281 0.157998 0.848245 -0.038208 0.042098 -0.078706 -44.584910 -0.637859 8.855420 -0.028512 -0.094482 -0.101909 -28.163269 4.991975 2.104413 -0.003153 0.098653 -0.177186 5.655072 1.331587 -2.378560 -0.002604 -0.029246 -0.168048 7.309606 -0.243825 -0.855972 0.000000 0.010502 -0.003676 -33.403242 2.370421 1.558511 0.000000 0.085347 -0.031697 -19.005830 -0.579422 -0.749948 0.000000 0.076608 -0.017390 -11.640030 -0.416249 -0.851402 0.000000 0.083490 0.001496 -19.976292 -0.100369 -0.942369 0.058370 -0.051166 -0.021529 0.001743 -0.000020 0.000156 0.014913 -0.012892 -0.167488 0.005857 -0.119924 0.361288 -0.002217 0.065703 -0.099301 -0.036717 -0.001568 -0.002865 0.007647 0.000448 -0.098465 0.039983 -2.275374 -0.357820 -0.058370 -0.051166 -0.021529 -0.036933 -0.000401 0.003321 -0.014913 -0.012892 -0.167489 0.036657 0.118310 -0.360766 0.002217 0.065703 -0.099301 0.044771 0.004743 -0.003453 -0.007647 0.000449 -0.098465 0.033919 2.266703 -0.362191 
0.000000 0.000000 0.000000 -0.000000 0.000000 -0.000000 -0.000000 0.211570 0.405722 0.000002 -0.000000 -0.000000 0.000000 -0.099054 0.017287 6.857391 0.000000 0.000001 -0.000000 -0.108138 0.003352 32.911236 0.000001 0.000002 0.000000 -0.106705 0.007714 15.373975 -0.000009 0.000006 0.000000 -0.138891 -0.015220 -0.000000 0.000000 0.000000 -0.000003 -0.094421 0.150012 3.232384 -0.001752 -0.007510 0.000000 0.009737 -0.101110 -2.496793 0.000167 -0.000575 -0.000407 -0.073044 -0.019282 -0.000008 0.000002 -0.000000 0.000407 -0.009642 -0.030854 0.000007 0.000002 -0.000000 0.000407 -0.014618 0.001227 0.000001 0.000002 0.000002 -0.000000 -0.098884 -0.010422 0.000003 0.000004 -0.000000 0.036228 -0.075523 -0.015181 -0.000001 -0.000002 -0.000006 -0.036228 -0.075523 -0.015181 0.000000 0.000012 0.000004 0.036475 -0.040037 0.085228 0.000002 0.000003 -0.000002 -0.036475 -0.040037 0.085228 0.000015 0.000000 -0.000006 0.036984 -0.083330 0.061266 0.000010 0.000006 0.000008 -0.036984 -0.083330 0.061266 0.000009 -0.000007 -0.000011 0.032663 -0.094051 0.047002 0.000003 0.000005 -0.000008 -0.032663 -0.094051 0.047002 -0.000008 0.000007 0.000009 0.033082 -0.093256 0.043917 0.000003 0.000004 -0.000006 -0.033082 -0.093256 0.043917 0.000012 0.000009 0.000006 0.000000 0.063255 0.150689 -0.000000 0.000000 -0.000000 0.038208 0.042098 -0.078706 -45.089685 -0.910006 -4.131350 0.028512 -0.094482 -0.101909 -28.616070 -0.493979 2.588516 0.003153 0.098653 -0.177186 6.226507 -1.614095 2.206435 0.002604 -0.029246 -0.168049 7.846875 0.157878 0.848496 -0.038208 0.042098 -0.078706 -44.487901 -0.642192 8.822180 -0.028512 -0.094482 -0.101909 -28.185173 4.978074 2.101024 -0.003153 0.098653 -0.177186 5.703638 1.328720 -2.369050 -0.002604 -0.029246 -0.168048 7.347512 -0.242843 -0.853335 0.000000 0.010502 -0.003676 -33.426270 3.102590 2.041445 -0.000000 0.085347 -0.031697 -19.008536 -0.758278 -0.981728 -0.000000 0.076608 -0.017390 -11.642234 -0.544683 -1.114486 -0.000000 0.083490 0.001496 -19.976878 -0.131221 -1.233493 0.058370 -0.051166 -0.021529 0.001743 -0.000020 0.000156 0.014913 -0.012892 -0.167488 0.005857 -0.119924 0.361288 -0.002217 0.065703 -0.099301 -0.036717 -0.001568 -0.002865 0.007647 0.000448 -0.098465 0.039983 -2.275374 -0.357820 -0.058370 -0.051166 -0.021529 -0.036933 -0.000401 0.003321 -0.014913 -0.012892 -0.167489 0.036657 0.118310 -0.360766 0.002217 0.065703 -0.099301 0.044771 0.004743 -0.003453 -0.007647 0.000449 -0.098465 0.033919 2.266703 -0.362191 
0.000000 0.000000 0.000000 -0.000000 0.000000 -0.000000 -0.000000 0.211570 0.405722 0.000002 -0.000000 -0.000000 0.000000 -0.099054 0.017287 6.857391 0.000000 0.000001 -0.000000 -0.108138 0.003352 32.911236 0.000001 0.000002 0.000000 -0.106705 0.007715 15.238915 -0.000009 0.000007 0.000000 -0.138891 -0.015220 0.000007 0.000000 -0.000000 -0.000003 -0.094421 0.150012 3.232390 -0.001752 -0.007510 0.000000 0.009737 -0.101110 -1.063377 0.000348 -0.000615 -0.000407 -0.073044 -0.019282 -0.000013 0.000003 -0.000001 0.000407 -0.009642 -0.030854 -0.000000 0.000002 -0.000000 0.000407 -0.014618 0.001227 0.000002 0.000001 0.000002 -0.000000 -0.098884 -0.010422 0.000012 0.000004 -0.000000 0.036228 -0.075523 -0.015181 -0.000001 -0.000001 -0.000008 -0.036228 -0.075523 -0.015181 0.000007 0.000011 0.000001 0.036475 -0.040037 0.085228 0.000004 0.000001 -0.000004 -0.036475 -0.040037 0.085228 0.000006 0.000000 -0.000006 0.036984 -0.083330 0.061266 0.000012 0.000005 0.000004 -0.036984 -0.083330 0.061266 0.000005 0.000001 -0.000017 0.032663 -0.094051 0.047002 0.000001 -0.000001 -0.000003 -0.032663 -0.094051 0.047002 -0.000011 0.000005 0.000008 0.033082 -0.093256 0.043917 -0.000003 0.000000 -0.000002 -0.033082 -0.093256 0.043917 0.000008 0.000007 0.000014 0.000000 0.063256 0.150689 0.000005 0.000000 -0.000000 0.038208 0.042098 -0.078706 -44.990784 -0.904436 -4.120435 0.028512 -0.094482 -0.101909 -28.637493 -0.493408 2.588835 0.003153 0.098653 -0.177186 6.272885 -1.617757 2.204486 0.002604 -0.029246 -0.168049 7.883441 0.157761 0.848748 -0.038208 0.042098 -0.078706 -44.393060 -0.646432 8.789688 -0.028512 -0.094482 -0.101909 -28.206439 4.964488 2.097690 -0.003153 0.098653 -0.177186 5.751120 1.325912 -2.359807 -0.002604 -0.029246 -0.168048 7.384433 -0.241884 -0.850770 -0.000000 0.010502 -0.003676 -33.456620 3.858884 2.541354 0.000000 0.085347 -0.031697 -19.012086 -0.942978 -1.221214 -0.000000 0.076608 -0.017390 -11.645129 -0.677294 -1.386294 0.000000 0.083490 0.001496 -19.977649 -0.163032 -1.534234 0.058370 -0.051166 -0.021529 0.001743 -0.000020 0.000156 0.014913 -0.012892 -0.167488 0.005857 -0.119924 0.361288 -0.002217 0.065703 -0.099301 -0.036717 -0.001568 -0.002865 0.007647 0.000448 -0.098465 0.039983 -2.275374 -0.357820 -0.058370 -0.051166 -0.021529 -0.036933 -0.000401 0.003321 -0.014913 -0.012892 -0.167489 0.036657 0.118310 -0.360766 0.002217 0.065703 -0.099301 0.044771 0.004743 -0.003453 -0.007647 0.000449 -0.098465 0.033919 2.266703 -0.362191 
0.000000 0.000000 0.000000 -0.000000 0.000000 -0.000000 -0.000000 0.211570 0.405722 0.000002 -0.000000 -0.000000 0.000000 -0.099054 0.017287 6.857391 0.000000 0.000001 -0.000000 -0.108138 0.003352 32.911236 0.000001 0.000002 -0.000000 -0.106705 0.007714 15.110675 -0.000010 0.000008 -0.000000 -0.138891 -0.015220 0.000010 -0.000000 0.000000 -0.000003 -0.094421 0.150012 3.232391 -0.001752 -0.007510 0.000000 0.009737 -0.101110 1.124740 0.000585 -0.000638 -0.000407 -0.073044 -0.019282 -0.000013 0.000002 -0.000001 0.000407 -0.009642 -0.030854 -0.000000 0.000002 -0.000000 0.000407 -0.014618 0.001227 0.000000 0.000002 0.000002 -0.000000 -0.098884 -0.010422 0.000008 0.000004 -0.000000 0.036228 -0.075523 -0.015181 0.000003 -0.000003 -0.000006 -0.036228 -0.075523 -0.015181 0.000003 0.000012 0.000003 0.036475 -0.040037 0.085228 0.000009 0.000000 -0.000004 -0.036475 -0.040037 0.085228 0.000010 0.000000 -0.000005 0.036984 -0.083330 0.061266 0.000008 -0.000001 0.000009 -0.036984 -0.083330 0.061266 0.000006 0.000002 -0.000016 0.032663 -0.094051 0.047002 0.000005 0.000005 -0.000008 -0.032663 -0.094051 0.047002 -0.000005 0.000007 0.000008 0.033082 -0.093256 0.043917 0.000001 0.000005 -0.000004 -0.033082 -0.093256 0.043917 0.000007 0.000005 0.000015 -0.000000 0.063255 0.150689 0.000007 -0.000000 0.000000 0.038208 0.042098 -0.078706 -44.897070 -0.899134 -4.110113 0.028512 -0.094482 -0.101909 -28.657575 -0.492877 2.589145 0.003153 0.098653 -0.177186 6.316747 -1.621233 2.202670 0.002604 -0.029246 -0.168049 7.917883 0.157650 0.848993 -0.038208 0.042098 -0.078706 -44.303172 -0.650452 8.758898 -0.028512 -0.094482 -0.101909 -28.226368 4.951599 2.094493 -0.003153 0.098653 -0.177186 5.796041 1.323251 -2.351086 -0.002604 -0.029246 -0.168048 7.419221 -0.240978 -0.848351 0.000000 0.010502 -0.003676 -33.494715 4.635660 3.056153 0.000000 0.085347 -0.031697 -19.016527 -1.132629 -1.467268 0.000000 0.076608 -0.017390 -11.648760 -0.813435 -1.665523 -0.000000 0.083490 0.001496 -19.978629 -0.195641 -1.843148 0.058370 -0.051166 -0.021529 0.001743 -0.000020 0.000156 0.014913 -0.012892 -0.167488 0.005857 -0.119924 0.361288 -0.002217 0.065703 -0.099301 -0.036717 -0.001568 -0.002865 0.007647 0.000448 -0.098465 0.039983 -2.275374 -0.357820 -0.058370 -0.051166 -0.021529 -0.036933 -0.000401 0.003321 -0.014913 -0.012892 -0.167489 0.036657 0.118310 -0.360766 0.002217 0.065703 -0.099301 0.044771 0.004743 -0.003453 -0.007647 0.000449 -0.098465 0.033919 2.266703 -0.362191 
